<?xml version="1.0" encoding="UTF-8"?>
<svg width="595px" height="1884px" viewBox="0 0 595 1884" version="1.1" xmlns="http://www.w3.org/2000/svg" xmlns:xlink="http://www.w3.org/1999/xlink">
    <!-- Generator: Sketch 60 (88103) - https://sketch.com -->
    <title>A4</title>
    <desc>Created with Sketch.</desc>
    <g id="A4" stroke="none" stroke-width="1" fill="none" fill-rule="evenodd">
        <rect fill="#FFFFFF" x="0" y="0" width="595" height="1884"></rect>
        <g id="Group" transform="translate(132.000000, 0.000000)">
            <g id="tiles/question" transform="translate(0.000000, 80.000000)">
                <g id="question" transform="translate(1.000000, -39.000000)">
                    <path d="M25.715089,27.6108964 L50.4613473,101.849671 C51.2325199,104.163189 53.8340208,106.76655 56.1503287,107.538653 L130.389104,132.284911 C132.220139,132.895256 132.895738,132.221586 132.284911,130.389104 L107.538653,56.1503287 C106.76748,53.836811 104.165979,51.23345 101.849671,50.4613473 L27.6108964,25.715089 C25.7798607,25.1047438 25.1042616,25.7784141 25.715089,27.6108964 Z" id="Rectangle-8" stroke="#1787E0" stroke-width="2" fill="#E4F3FF" transform="translate(79.000000, 79.000000) rotate(-45.000000) translate(-79.000000, -79.000000) "></path>
                    <text id="Success?" font-family="Helvetica" font-size="11" font-weight="normal" letter-spacing="0.1833334" fill="#1787E0">
                        <tspan x="35.2290845" y="80.9651163">Xcode </tspan>
                        <tspan x="70.5751787" y="80.9651163" font-family="PingFangSC-Regular, PingFang SC">命令行工具</tspan>
                    </text>
                </g>
            </g>
            <g id="tiles/question" transform="translate(0.000000, 215.000000)">
                <g id="question" transform="translate(1.000000, -39.000000)">
                    <path d="M25.715089,27.6108964 L50.4613473,101.849671 C51.2325199,104.163189 53.8340208,106.76655 56.1503287,107.538653 L130.389104,132.284911 C132.220139,132.895256 132.895738,132.221586 132.284911,130.389104 L107.538653,56.1503287 C106.76748,53.836811 104.165979,51.23345 101.849671,50.4613473 L27.6108964,25.715089 C25.7798607,25.1047438 25.1042616,25.7784141 25.715089,27.6108964 Z" id="Rectangle-8" stroke="#1787E0" stroke-width="2" fill="#E4F3FF" transform="translate(79.000000, 79.000000) rotate(-45.000000) translate(-79.000000, -79.000000) "></path>
                    <text id="Success?" font-family="PingFangSC-Regular, PingFang SC" font-size="11" font-weight="normal" letter-spacing="0.1833334" fill="#1787E0">
                        <tspan x="27.5362459" y="82.9651163">检测</tspan>
                        <tspan x="49.9029127" y="82.9651163" font-family="Helvetica"> Oh My Zsh </tspan>
                        <tspan x="111.818018" y="82.9651163">环境</tspan>
                    </text>
                </g>
            </g>
            <g id="tiles/question" transform="translate(0.000000, 355.000000)">
                <g id="question" transform="translate(1.000000, -39.000000)">
                    <path d="M25.715089,27.6108964 L50.4613473,101.849671 C51.2325199,104.163189 53.8340208,106.76655 56.1503287,107.538653 L130.389104,132.284911 C132.220139,132.895256 132.895738,132.221586 132.284911,130.389104 L107.538653,56.1503287 C106.76748,53.836811 104.165979,51.23345 101.849671,50.4613473 L27.6108964,25.715089 C25.7798607,25.1047438 25.1042616,25.7784141 25.715089,27.6108964 Z" id="Rectangle-8" stroke="#1787E0" stroke-width="2" fill="#E4F3FF" transform="translate(79.000000, 79.000000) rotate(-45.000000) translate(-79.000000, -79.000000) "></path>
                    <text id="Success?" font-family="Helvetica" font-size="11" font-weight="normal" letter-spacing="0.1833334" fill="#1787E0">
                        <tspan x="28.6707998" y="82.9651163">zsh-autosuggestions</tspan>
                    </text>
                </g>
            </g>
            <g id="tiles/question" transform="translate(0.000000, 490.000000)">
                <g id="question" transform="translate(1.000000, -39.000000)">
                    <path d="M25.715089,27.6108964 L50.4613473,101.849671 C51.2325199,104.163189 53.8340208,106.76655 56.1503287,107.538653 L130.389104,132.284911 C132.220139,132.895256 132.895738,132.221586 132.284911,130.389104 L107.538653,56.1503287 C106.76748,53.836811 104.165979,51.23345 101.849671,50.4613473 L27.6108964,25.715089 C25.7798607,25.1047438 25.1042616,25.7784141 25.715089,27.6108964 Z" id="Rectangle-8" stroke="#1787E0" stroke-width="2" fill="#E4F3FF" transform="translate(79.000000, 79.000000) rotate(-45.000000) translate(-79.000000, -79.000000) "></path>
                    <text id="Success?" font-family="Helvetica" font-size="11" font-weight="normal" letter-spacing="0.1833334" fill="#1787E0">
                        <tspan x="22.8068185" y="82.9651163">zsh-syntax-highlighting</tspan>
                    </text>
                </g>
            </g>
            <g id="tiles/question" transform="translate(0.000000, 625.000000)">
                <g id="question" transform="translate(1.000000, -39.000000)">
                    <path d="M25.715089,27.6108964 L50.4613473,101.849671 C51.2325199,104.163189 53.8340208,106.76655 56.1503287,107.538653 L130.389104,132.284911 C132.220139,132.895256 132.895738,132.221586 132.284911,130.389104 L107.538653,56.1503287 C106.76748,53.836811 104.165979,51.23345 101.849671,50.4613473 L27.6108964,25.715089 C25.7798607,25.1047438 25.1042616,25.7784141 25.715089,27.6108964 Z" id="Rectangle-8" stroke="#1787E0" stroke-width="2" fill="#E4F3FF" transform="translate(79.000000, 79.000000) rotate(-45.000000) translate(-79.000000, -79.000000) "></path>
                    <text id="Success?" font-family="Helvetica" font-size="11" font-weight="normal" letter-spacing="0.1833334" fill="#1787E0">
                        <tspan x="39.7474275" y="82.9651163">zsh-completions</tspan>
                    </text>
                </g>
            </g>
            <g id="Start" transform="translate(50.000000, 0.000000)">
                <ellipse id="Oval" stroke="#1787E0" stroke-width="2" fill="#E4F3FF" fill-rule="evenodd" cx="30" cy="20" rx="29" ry="19"></ellipse>
                <text font-family="PingFangSC-Regular, PingFang SC" font-size="11" font-weight="normal" letter-spacing="0.1833334" fill="#1787E0">
                    <tspan x="18.8166666" y="24">开始</tspan>
                </text>
            </g>
            <g id="tiles/modal" transform="translate(280.000000, 100.000000)">
                <g id="modal">
                    <rect id="Rectangle-8" stroke="#1787E0" stroke-width="2" fill="#E4F3FF" x="1" y="1" width="118" height="38" rx="5"></rect>
                    <text id="Success?" font-family="PingFangSC-Regular, PingFang SC" font-size="11" font-weight="normal" letter-spacing="0.1833334" fill="#1787E0">
                        <tspan x="21.6083331" y="23.75">安装命令行工具</tspan>
                    </text>
                </g>
            </g>
            <g id="tiles/modal" transform="translate(280.000000, 235.000000)">
                <g id="modal">
                    <rect id="Rectangle-8" stroke="#1787E0" stroke-width="2" fill="#E4F3FF" x="1" y="1" width="118" height="38" rx="5"></rect>
                    <text id="Success?" font-family="PingFangSC-Regular, PingFang SC" font-size="11" font-weight="normal" letter-spacing="0.1833334" fill="#1787E0">
                        <tspan x="20.228857" y="23.75">安装</tspan>
                        <tspan x="42.5955238" y="23.75" font-family="Helvetica"> Oh My Zsh</tspan>
                    </text>
                </g>
            </g>
            <g id="tiles/modal" transform="translate(280.000000, 375.000000)">
                <g id="modal">
                    <rect id="Rectangle-8" stroke="#1787E0" stroke-width="2" fill="#E4F3FF" x="1" y="1" width="118" height="38" rx="5"></rect>
                    <text id="Success?" font-family="PingFangSC-Regular, PingFang SC" font-size="11" font-weight="normal" letter-spacing="0.1833334" fill="#1787E0">
                        <tspan x="16.0166664" y="23.75">安装自动提示插件</tspan>
                    </text>
                </g>
            </g>
            <g id="tiles/modal" transform="translate(280.000000, 510.000000)">
                <g id="modal">
                    <rect id="Rectangle-8" stroke="#1787E0" stroke-width="2" fill="#E4F3FF" x="1" y="1" width="118" height="38" rx="5"></rect>
                    <text id="Success?" font-family="PingFangSC-Regular, PingFang SC" font-size="11" font-weight="normal" letter-spacing="0.1833334" fill="#1787E0">
                        <tspan x="16.0166664" y="23.75">安装语法高亮插件</tspan>
                    </text>
                </g>
            </g>
            <g id="tiles/modal" transform="translate(280.000000, 645.000000)">
                <g id="modal">
                    <rect id="Rectangle-8" stroke="#1787E0" stroke-width="2" fill="#E4F3FF" x="1" y="1" width="118" height="38" rx="5"></rect>
                    <text id="Success?" font-family="PingFangSC-Regular, PingFang SC" font-size="11" font-weight="normal" letter-spacing="0.1833334" fill="#1787E0">
                        <tspan x="16.0166664" y="23.75">安装自动补全插件</tspan>
                    </text>
                </g>
            </g>
            <g id="tiles/modal" transform="translate(280.000000, 845.000000)">
                <g id="modal">
                    <rect id="Rectangle-8" stroke="#1787E0" stroke-width="2" fill="#E4F3FF" x="1" y="1" width="118" height="38" rx="5"></rect>
                    <text id="Success?" font-family="PingFangSC-Regular, PingFang SC" font-size="11" font-weight="normal" letter-spacing="0.1833334" fill="#1787E0">
                        <tspan x="32.7916665" y="23.75">选择镜像源</tspan>
                    </text>
                </g>
            </g>
            <g id="tiles/modal" transform="translate(20.000000, 745.000000)">
                <g id="modal">
                    <rect id="Rectangle-8" stroke="#1787E0" stroke-width="2" fill="#E4F3FF" x="1" y="1" width="118" height="38" rx="5"></rect>
                    <text id="Success?" font-family="Helvetica" font-size="11" font-weight="normal" letter-spacing="0.1833334" fill="#1787E0">
                        <tspan x="23.164876" y="21.75">zshrc </tspan>
                        <tspan x="53.6017904" y="21.75" font-family="PingFangSC-Regular, PingFang SC">配置文件</tspan>
                    </text>
                </g>
            </g>
            <g id="tiles/question" transform="translate(5.000000, 825.000000)">
                <g id="question" transform="translate(1.000000, -34.000000)">
                    <path d="M24.0854602,26.1618939 L45.5953294,96.8371782 C46.3002215,99.1532525 48.8448984,101.699216 51.1628218,102.404671 L121.838106,123.91454 C123.708129,124.483677 124.483998,123.709185 123.91454,121.838106 L102.404671,51.1628218 C101.699778,48.8467475 99.1551016,46.3007843 96.8371782,45.5953294 L26.1618939,24.0854602 C24.2918712,23.5163229 23.5160015,24.2908153 24.0854602,26.1618939 Z" id="Rectangle-8" stroke="#1787E0" stroke-width="2" fill="#E4F3FF" transform="translate(74.000000, 74.000000) rotate(-45.000000) translate(-74.000000, -74.000000) "></path>
                    <text id="Success?" font-family="PingFangSC-Regular, PingFang SC" font-size="11" font-weight="normal" letter-spacing="0.1833334" fill="#1787E0">
                        <tspan x="25.9629193" y="77.9651163">检测</tspan>
                        <tspan x="48.3295861" y="77.9651163" font-family="Helvetica"> Hombrew </tspan>
                        <tspan x="103.158786" y="77.9651163">环境</tspan>
                    </text>
                </g>
            </g>
            <g id="Start" transform="translate(50.000000, 1839.000000)">
                <ellipse id="Oval" stroke="#1787E0" stroke-width="2" fill="#E4F3FF" fill-rule="evenodd" cx="30" cy="22.5" rx="29" ry="21.5"></ellipse>
                <text font-family="PingFangSC-Regular, PingFang SC" font-size="11" font-weight="normal" letter-spacing="0.1833334" fill="#1787E0">
                    <tspan x="18.8166666" y="26.5">结束</tspan>
                </text>
            </g>
            <g id="tiles/modal" transform="translate(20.000000, 959.000000)">
                <g id="modal">
                    <rect id="Rectangle-8" stroke="#1787E0" stroke-width="2" fill="#E4F3FF" x="1" y="1" width="118" height="38" rx="5"></rect>
                    <text id="Success?" font-family="PingFangSC-Regular, PingFang SC" font-size="11" font-weight="normal" letter-spacing="0.1833334" fill="#1787E0">
                        <tspan x="38.3833332" y="23.75">常用工具</tspan>
                    </text>
                </g>
            </g>
            <g id="tiles/modal" transform="translate(20.000000, 1039.000000)">
                <g id="modal">
                    <rect id="Rectangle-8" stroke="#1787E0" stroke-width="2" fill="#E4F3FF" x="1" y="1" width="118" height="38" rx="5"></rect>
                    <text id="Success?" font-family="PingFangSC-Regular, PingFang SC" font-size="11" font-weight="normal" letter-spacing="0.1833334" fill="#1787E0">
                        <tspan x="38.3833332" y="23.75">常用软件</tspan>
                    </text>
                </g>
            </g>
            <g id="tiles/modal" transform="translate(20.000000, 1119.000000)">
                <g id="modal">
                    <rect id="Rectangle-8" stroke="#1787E0" stroke-width="2" fill="#E4F3FF" x="1" y="1" width="118" height="38" rx="5"></rect>
                    <text id="Success?" font-family="Helvetica" font-size="11" font-weight="normal" letter-spacing="0.1833334" fill="#1787E0">
                        <tspan x="24.2817054" y="21.75">AppStore </tspan>
                        <tspan x="74.8516278" y="21.75" font-family="PingFangSC-Regular, PingFang SC">软件</tspan>
                    </text>
                </g>
            </g>
            <g id="tiles/modal" transform="translate(20.000000, 1199.000000)">
                <g id="modal">
                    <rect id="Rectangle-8" stroke="#1787E0" stroke-width="2" fill="#E4F3FF" x="1" y="1" width="118" height="38" rx="5"></rect>
                    <text id="Success?" font-family="Helvetica" font-size="11" font-weight="normal" letter-spacing="0.1833334" fill="#1787E0">
                        <tspan x="41.6512856" y="21.75">Npm </tspan>
                        <tspan x="68.665381" y="21.75" font-family="PingFangSC-Regular, PingFang SC">包</tspan>
                    </text>
                </g>
            </g>
            <g id="tiles/modal" transform="translate(20.000000, 1279.000000)">
                <g id="modal">
                    <rect id="Rectangle-8" stroke="#1787E0" stroke-width="2" fill="#E4F3FF" x="1" y="1" width="118" height="38" rx="5"></rect>
                    <text id="Success?" font-family="Helvetica" font-size="11" font-weight="normal" letter-spacing="0.1833334" fill="#1787E0">
                        <tspan x="40.332324" y="21.75">Ruby </tspan>
                        <tspan x="69.9843426" y="21.75" font-family="PingFangSC-Regular, PingFang SC">包</tspan>
                    </text>
                </g>
            </g>
            <g id="tiles/modal" transform="translate(20.000000, 1359.000000)">
                <g id="modal">
                    <rect id="Rectangle-8" stroke="#1787E0" stroke-width="2" fill="#E4F3FF" x="1" y="1" width="118" height="38" rx="5"></rect>
                    <text id="Success?" font-family="Helvetica" font-size="11" font-weight="normal" letter-spacing="0.1833334" fill="#1787E0">
                        <tspan x="24.3706865" y="21.75">mongodb </tspan>
                        <tspan x="74.7626467" y="21.75" font-family="PingFangSC-Regular, PingFang SC">环境</tspan>
                    </text>
                </g>
            </g>
            <g id="tiles/modal" transform="translate(20.000000, 1439.000000)">
                <g id="modal">
                    <rect id="Rectangle-8" stroke="#1787E0" stroke-width="2" fill="#E4F3FF" x="1" y="1" width="118" height="38" rx="5"></rect>
                    <text id="Success?" font-family="Helvetica" font-size="11" font-weight="normal" letter-spacing="0.1833334" fill="#1787E0">
                        <tspan x="36.271419" y="21.75">Rust </tspan>
                        <tspan x="62.8619142" y="21.75" font-family="PingFangSC-Regular, PingFang SC">环境</tspan>
                    </text>
                </g>
            </g>
            <g id="tiles/modal" transform="translate(20.000000, 1519.000000)">
                <g id="modal">
                    <rect id="Rectangle-8" stroke="#1787E0" stroke-width="2" fill="#E4F3FF" x="1" y="1" width="118" height="38" rx="5"></rect>
                    <text id="Success?" font-family="PingFangSC-Regular, PingFang SC" font-size="11" font-weight="normal" letter-spacing="0.1833334" fill="#1787E0">
                        <tspan x="38.3833332" y="23.75">习惯字体</tspan>
                    </text>
                </g>
            </g>
            <g id="tiles/modal" transform="translate(20.000000, 1599.000000)">
                <g id="modal">
                    <rect id="Rectangle-8" stroke="#1787E0" stroke-width="2" fill="#E4F3FF" x="1" y="1" width="118" height="38" rx="5"></rect>
                    <text id="Success?" font-family="Helvetica" font-size="11" font-weight="normal" letter-spacing="0.1833334" fill="#1787E0">
                        <tspan x="30.6797523" y="21.75">Emacs </tspan>
                        <tspan x="68.4535809" y="21.75" font-family="PingFangSC-Regular, PingFang SC">配置</tspan>
                    </text>
                </g>
            </g>
            <g id="tiles/modal" transform="translate(20.000000, 1679.000000)">
                <g id="modal">
                    <rect id="Rectangle-8" stroke="#1787E0" stroke-width="2" fill="#E4F3FF" x="1" y="1" width="118" height="38" rx="5"></rect>
                    <text id="Success?" font-family="Helvetica" font-size="11" font-weight="normal" letter-spacing="0.1833334" fill="#1787E0">
                        <tspan x="38.2966795" y="21.75">Vim </tspan>
                        <tspan x="60.8366537" y="21.75" font-family="PingFangSC-Regular, PingFang SC">配置</tspan>
                    </text>
                </g>
            </g>
            <g id="tiles/modal" transform="translate(20.000000, 1759.000000)">
                <g id="modal">
                    <rect id="Rectangle-8" stroke="#1787E0" stroke-width="2" fill="#E4F3FF" x="1" y="1" width="118" height="38" rx="5"></rect>
                    <text id="Success?" font-family="Helvetica" font-size="11" font-weight="normal" letter-spacing="0.1833334" fill="#1787E0">
                        <tspan x="29.1516762" y="21.75">macOS </tspan>
                        <tspan x="69.981657" y="21.75" font-family="PingFangSC-Regular, PingFang SC">配置</tspan>
                    </text>
                </g>
            </g>
            <g id="arrows/arrow-1" transform="translate(80.500000, 58.500000) rotate(-270.000000) translate(-80.500000, -58.500000) translate(58.000000, 56.000000)">
                <g id="arrow-1">
                    <line x1="1" y1="3" x2="43.8914141" y2="3" id="Line" stroke="#1787E0" stroke-linecap="square"></line>
                    <circle id="Oval" stroke="#1787E0" fill="#FFFFFF" cx="2.5" cy="3" r="2.5"></circle>
                    <polygon id="Triangle" fill="#1787E0" points="42 5.5 42 0.5 45 3"></polygon>
                </g>
            </g>
            <g id="arrows/arrow-1" transform="translate(80.500000, 722.500000) rotate(-270.000000) translate(-80.500000, -722.500000) translate(58.000000, 720.000000)">
                <g id="arrow-1">
                    <line x1="1" y1="3" x2="43.8914141" y2="3" id="Line" stroke="#1787E0" stroke-linecap="square"></line>
                    <circle id="Oval" stroke="#1787E0" fill="#FFFFFF" cx="2.5" cy="3" r="2.5"></circle>
                    <polygon id="Triangle" fill="#1787E0" points="42 5.5 42 0.5 45 3"></polygon>
                </g>
            </g>
            <g id="arrows/arrow-1" transform="translate(80.500000, 804.500000) rotate(-270.000000) translate(-80.500000, -804.500000) translate(58.000000, 802.000000)">
                <g id="arrow-1">
                    <line x1="1" y1="3" x2="43.8914141" y2="3" id="Line" stroke="#1787E0" stroke-linecap="square"></line>
                    <circle id="Oval" stroke="#1787E0" fill="#FFFFFF" cx="2.5" cy="3" r="2.5"></circle>
                    <polygon id="Triangle" fill="#1787E0" points="42 5.5 42 0.5 45 3"></polygon>
                </g>
            </g>
            <g id="arrows/arrow-1" transform="translate(80.500000, 1017.500000) rotate(-270.000000) translate(-80.500000, -1017.500000) translate(58.000000, 1015.000000)">
                <g id="arrow-1">
                    <line x1="1" y1="3" x2="43.8914141" y2="3" id="Line" stroke="#1787E0" stroke-linecap="square"></line>
                    <circle id="Oval" stroke="#1787E0" fill="#FFFFFF" cx="2.5" cy="3" r="2.5"></circle>
                    <polygon id="Triangle" fill="#1787E0" points="42 5.5 42 0.5 45 3"></polygon>
                </g>
            </g>
            <g id="arrows/arrow-1" transform="translate(80.500000, 1097.500000) rotate(-270.000000) translate(-80.500000, -1097.500000) translate(58.000000, 1095.000000)">
                <g id="arrow-1">
                    <line x1="1" y1="3" x2="43.8914141" y2="3" id="Line" stroke="#1787E0" stroke-linecap="square"></line>
                    <circle id="Oval" stroke="#1787E0" fill="#FFFFFF" cx="2.5" cy="3" r="2.5"></circle>
                    <polygon id="Triangle" fill="#1787E0" points="42 5.5 42 0.5 45 3"></polygon>
                </g>
            </g>
            <g id="arrows/arrow-1" transform="translate(80.500000, 1177.500000) rotate(-270.000000) translate(-80.500000, -1177.500000) translate(58.000000, 1175.000000)">
                <g id="arrow-1">
                    <line x1="1" y1="3" x2="43.8914141" y2="3" id="Line" stroke="#1787E0" stroke-linecap="square"></line>
                    <circle id="Oval" stroke="#1787E0" fill="#FFFFFF" cx="2.5" cy="3" r="2.5"></circle>
                    <polygon id="Triangle" fill="#1787E0" points="42 5.5 42 0.5 45 3"></polygon>
                </g>
            </g>
            <g id="arrows/arrow-1" transform="translate(80.500000, 1257.500000) rotate(-270.000000) translate(-80.500000, -1257.500000) translate(58.000000, 1255.000000)">
                <g id="arrow-1">
                    <line x1="1" y1="3" x2="43.8914141" y2="3" id="Line" stroke="#1787E0" stroke-linecap="square"></line>
                    <circle id="Oval" stroke="#1787E0" fill="#FFFFFF" cx="2.5" cy="3" r="2.5"></circle>
                    <polygon id="Triangle" fill="#1787E0" points="42 5.5 42 0.5 45 3"></polygon>
                </g>
            </g>
            <g id="arrows/arrow-1" transform="translate(80.500000, 1337.500000) rotate(-270.000000) translate(-80.500000, -1337.500000) translate(58.000000, 1335.000000)">
                <g id="arrow-1">
                    <line x1="1" y1="3" x2="43.8914141" y2="3" id="Line" stroke="#1787E0" stroke-linecap="square"></line>
                    <circle id="Oval" stroke="#1787E0" fill="#FFFFFF" cx="2.5" cy="3" r="2.5"></circle>
                    <polygon id="Triangle" fill="#1787E0" points="42 5.5 42 0.5 45 3"></polygon>
                </g>
            </g>
            <g id="arrows/arrow-1" transform="translate(80.500000, 1417.500000) rotate(-270.000000) translate(-80.500000, -1417.500000) translate(58.000000, 1415.000000)">
                <g id="arrow-1">
                    <line x1="1" y1="3" x2="43.8914141" y2="3" id="Line" stroke="#1787E0" stroke-linecap="square"></line>
                    <circle id="Oval" stroke="#1787E0" fill="#FFFFFF" cx="2.5" cy="3" r="2.5"></circle>
                    <polygon id="Triangle" fill="#1787E0" points="42 5.5 42 0.5 45 3"></polygon>
                </g>
            </g>
            <g id="arrows/arrow-1" transform="translate(80.500000, 1497.500000) rotate(-270.000000) translate(-80.500000, -1497.500000) translate(58.000000, 1495.000000)">
                <g id="arrow-1">
                    <line x1="1" y1="3" x2="43.8914141" y2="3" id="Line" stroke="#1787E0" stroke-linecap="square"></line>
                    <circle id="Oval" stroke="#1787E0" fill="#FFFFFF" cx="2.5" cy="3" r="2.5"></circle>
                    <polygon id="Triangle" fill="#1787E0" points="42 5.5 42 0.5 45 3"></polygon>
                </g>
            </g>
            <g id="arrows/arrow-1" transform="translate(80.500000, 1577.500000) rotate(-270.000000) translate(-80.500000, -1577.500000) translate(58.000000, 1575.000000)">
                <g id="arrow-1">
                    <line x1="1" y1="3" x2="43.8914141" y2="3" id="Line" stroke="#1787E0" stroke-linecap="square"></line>
                    <circle id="Oval" stroke="#1787E0" fill="#FFFFFF" cx="2.5" cy="3" r="2.5"></circle>
                    <polygon id="Triangle" fill="#1787E0" points="42 5.5 42 0.5 45 3"></polygon>
                </g>
            </g>
            <g id="arrows/arrow-1" transform="translate(80.500000, 1657.500000) rotate(-270.000000) translate(-80.500000, -1657.500000) translate(58.000000, 1655.000000)">
                <g id="arrow-1">
                    <line x1="1" y1="3" x2="43.8914141" y2="3" id="Line" stroke="#1787E0" stroke-linecap="square"></line>
                    <circle id="Oval" stroke="#1787E0" fill="#FFFFFF" cx="2.5" cy="3" r="2.5"></circle>
                    <polygon id="Triangle" fill="#1787E0" points="42 5.5 42 0.5 45 3"></polygon>
                </g>
            </g>
            <g id="arrows/arrow-1" transform="translate(80.500000, 1737.500000) rotate(-270.000000) translate(-80.500000, -1737.500000) translate(58.000000, 1735.000000)">
                <g id="arrow-1">
                    <line x1="1" y1="3" x2="43.8914141" y2="3" id="Line" stroke="#1787E0" stroke-linecap="square"></line>
                    <circle id="Oval" stroke="#1787E0" fill="#FFFFFF" cx="2.5" cy="3" r="2.5"></circle>
                    <polygon id="Triangle" fill="#1787E0" points="42 5.5 42 0.5 45 3"></polygon>
                </g>
            </g>
            <g id="arrows/arrow-1" transform="translate(80.500000, 1817.500000) rotate(-270.000000) translate(-80.500000, -1817.500000) translate(58.000000, 1815.000000)">
                <g id="arrow-1">
                    <line x1="1" y1="3" x2="43.8914141" y2="3" id="Line" stroke="#1787E0" stroke-linecap="square"></line>
                    <circle id="Oval" stroke="#1787E0" fill="#FFFFFF" cx="2.5" cy="3" r="2.5"></circle>
                    <polygon id="Triangle" fill="#1787E0" points="42 5.5 42 0.5 45 3"></polygon>
                </g>
            </g>
            <g id="arrows/tag-ver---arrow-1" transform="translate(56.000000, 154.000000)">
                <g id="tag-ver---arrow-1" transform="translate(23.500000, 30.500000) rotate(-270.000000) translate(-23.500000, -30.500000) translate(-6.500000, 7.500000)">
                    <line x1="0.5" y1="22.5" x2="57.5" y2="22.5" id="Line" stroke="#1787E0" stroke-linecap="square"></line>
                    <circle id="Oval" stroke="#1787E0" fill="#FFFFFF" cx="2.5" cy="22.5" r="2.5"></circle>
                    <polygon id="Triangle" fill="#1787E0" points="57 25 57 20 60 22.5"></polygon>
                    <rect id="pill" fill="#FFFFFF" transform="translate(30.000000, 23.000000) rotate(-90.000000) translate(-30.000000, -23.000000) " x="7" y="13" width="46" height="20" rx="10"></rect>
                    <text id="Label" transform="translate(30.000000, 23.000000) rotate(-90.000000) translate(-30.000000, -23.000000) " font-family="Helvetica" font-size="9" font-weight="normal" letter-spacing="0.15" fill="#1787E0">
                        <tspan x="26.9235352" y="26.5">Y</tspan>
                    </text>
                </g>
            </g>
            <g id="arrows/tag-ver---arrow-1" transform="translate(56.000000, 290.000000)">
                <g id="tag-ver---arrow-1" transform="translate(23.500000, 30.500000) rotate(-270.000000) translate(-23.500000, -30.500000) translate(-6.500000, 7.500000)">
                    <line x1="0.5" y1="22.5" x2="57.5" y2="22.5" id="Line" stroke="#1787E0" stroke-linecap="square"></line>
                    <circle id="Oval" stroke="#1787E0" fill="#FFFFFF" cx="2.5" cy="22.5" r="2.5"></circle>
                    <polygon id="Triangle" fill="#1787E0" points="57 25 57 20 60 22.5"></polygon>
                    <rect id="pill" fill="#FFFFFF" transform="translate(30.000000, 23.000000) rotate(-90.000000) translate(-30.000000, -23.000000) " x="7" y="13" width="46" height="20" rx="10"></rect>
                    <text id="Label" transform="translate(30.000000, 23.000000) rotate(-90.000000) translate(-30.000000, -23.000000) " font-family="Helvetica" font-size="9" font-weight="normal" letter-spacing="0.15" fill="#1787E0">
                        <tspan x="26.9235352" y="26.5">Y</tspan>
                    </text>
                </g>
            </g>
            <g id="arrows/tag-ver---arrow-1" transform="translate(56.000000, 430.000000)">
                <g id="tag-ver---arrow-1" transform="translate(23.500000, 30.500000) rotate(-270.000000) translate(-23.500000, -30.500000) translate(-6.500000, 7.500000)">
                    <line x1="0.5" y1="22.5" x2="57.5" y2="22.5" id="Line" stroke="#1787E0" stroke-linecap="square"></line>
                    <circle id="Oval" stroke="#1787E0" fill="#FFFFFF" cx="2.5" cy="22.5" r="2.5"></circle>
                    <polygon id="Triangle" fill="#1787E0" points="57 25 57 20 60 22.5"></polygon>
                    <rect id="pill" fill="#FFFFFF" transform="translate(30.000000, 23.000000) rotate(-90.000000) translate(-30.000000, -23.000000) " x="7" y="13" width="46" height="20" rx="10"></rect>
                    <text id="Label" transform="translate(30.000000, 23.000000) rotate(-90.000000) translate(-30.000000, -23.000000) " font-family="Helvetica" font-size="9" font-weight="normal" letter-spacing="0.15" fill="#1787E0">
                        <tspan x="26.9235352" y="26.5">Y</tspan>
                    </text>
                </g>
            </g>
            <g id="arrows/tag-ver---arrow-1" transform="translate(56.000000, 565.000000)">
                <g id="tag-ver---arrow-1" transform="translate(23.500000, 30.500000) rotate(-270.000000) translate(-23.500000, -30.500000) translate(-6.500000, 7.500000)">
                    <line x1="0.5" y1="22.5" x2="57.5" y2="22.5" id="Line" stroke="#1787E0" stroke-linecap="square"></line>
                    <circle id="Oval" stroke="#1787E0" fill="#FFFFFF" cx="2.5" cy="22.5" r="2.5"></circle>
                    <polygon id="Triangle" fill="#1787E0" points="57 25 57 20 60 22.5"></polygon>
                    <rect id="pill" fill="#FFFFFF" transform="translate(30.000000, 23.000000) rotate(-90.000000) translate(-30.000000, -23.000000) " x="7" y="13" width="46" height="20" rx="10"></rect>
                    <text id="Label" transform="translate(30.000000, 23.000000) rotate(-90.000000) translate(-30.000000, -23.000000) " font-family="Helvetica" font-size="9" font-weight="normal" letter-spacing="0.15" fill="#1787E0">
                        <tspan x="26.9235352" y="26.5">Y</tspan>
                    </text>
                </g>
            </g>
            <g id="arrows/tag-ver---arrow-1" transform="translate(56.000000, 899.000000)">
                <g id="tag-ver---arrow-1" transform="translate(23.500000, 30.500000) rotate(-270.000000) translate(-23.500000, -30.500000) translate(-6.500000, 7.500000)">
                    <line x1="0.5" y1="22.5" x2="57.5" y2="22.5" id="Line" stroke="#1787E0" stroke-linecap="square"></line>
                    <circle id="Oval" stroke="#1787E0" fill="#FFFFFF" cx="2.5" cy="22.5" r="2.5"></circle>
                    <polygon id="Triangle" fill="#1787E0" points="57 25 57 20 60 22.5"></polygon>
                    <rect id="pill" fill="#FFFFFF" transform="translate(30.000000, 23.000000) rotate(-90.000000) translate(-30.000000, -23.000000) " x="7" y="13" width="46" height="20" rx="10"></rect>
                    <text id="Label" transform="translate(30.000000, 23.000000) rotate(-90.000000) translate(-30.000000, -23.000000) " font-family="Helvetica" font-size="9" font-weight="normal" letter-spacing="0.15" fill="#1787E0">
                        <tspan x="26.9235352" y="26.5">Y</tspan>
                    </text>
                </g>
            </g>
            <g id="arrows/tag-hor---arrow-1" transform="translate(155.000000, 114.000000)">
                <g id="tag-hor---arrow-1">
                    <line x1="1" y1="6.5" x2="118.70202" y2="6.5" id="Line" stroke="#1787E0" stroke-linecap="square"></line>
                    <circle id="Oval" stroke="#1787E0" fill="#FFFFFF" cx="2.5" cy="6.5" r="2.5"></circle>
                    <polygon id="Triangle" fill="#1787E0" points="117 9 117 4 120 6.5"></polygon>
                    <rect id="pill" fill="#FFFFFF" x="50" y="0" width="20" height="13" rx="6.5"></rect>
                    <text id="Label" font-family="Helvetica" font-size="9" font-weight="normal" letter-spacing="0.15" fill="#1787E0">
                        <tspan x="56.6752441" y="11">N</tspan>
                    </text>
                </g>
            </g>
            <g id="arrows/tag-hor---arrow-1" transform="translate(155.000000, 249.000000)">
                <g id="tag-hor---arrow-1">
                    <line x1="1" y1="6.5" x2="118.70202" y2="6.5" id="Line" stroke="#1787E0" stroke-linecap="square"></line>
                    <circle id="Oval" stroke="#1787E0" fill="#FFFFFF" cx="2.5" cy="6.5" r="2.5"></circle>
                    <polygon id="Triangle" fill="#1787E0" points="117 9 117 4 120 6.5"></polygon>
                    <rect id="pill" fill="#FFFFFF" x="50" y="0" width="20" height="13" rx="6.5"></rect>
                    <text id="Label" font-family="Helvetica" font-size="9" font-weight="normal" letter-spacing="0.15" fill="#1787E0">
                        <tspan x="56.6752441" y="11">N</tspan>
                    </text>
                </g>
            </g>
            <g id="arrows/tag-hor---arrow-1" transform="translate(155.000000, 389.000000)">
                <g id="tag-hor---arrow-1">
                    <line x1="1" y1="6.5" x2="118.70202" y2="6.5" id="Line" stroke="#1787E0" stroke-linecap="square"></line>
                    <circle id="Oval" stroke="#1787E0" fill="#FFFFFF" cx="2.5" cy="6.5" r="2.5"></circle>
                    <polygon id="Triangle" fill="#1787E0" points="117 9 117 4 120 6.5"></polygon>
                    <rect id="pill" fill="#FFFFFF" x="50" y="0" width="20" height="13" rx="6.5"></rect>
                    <text id="Label" font-family="Helvetica" font-size="9" font-weight="normal" letter-spacing="0.15" fill="#1787E0">
                        <tspan x="56.6752441" y="11">N</tspan>
                    </text>
                </g>
            </g>
            <g id="arrows/tag-hor---arrow-1" transform="translate(155.000000, 524.000000)">
                <g id="tag-hor---arrow-1">
                    <line x1="1" y1="6.5" x2="118.70202" y2="6.5" id="Line" stroke="#1787E0" stroke-linecap="square"></line>
                    <circle id="Oval" stroke="#1787E0" fill="#FFFFFF" cx="2.5" cy="6.5" r="2.5"></circle>
                    <polygon id="Triangle" fill="#1787E0" points="117 9 117 4 120 6.5"></polygon>
                    <rect id="pill" fill="#FFFFFF" x="50" y="0" width="20" height="13" rx="6.5"></rect>
                    <text id="Label" font-family="Helvetica" font-size="9" font-weight="normal" letter-spacing="0.15" fill="#1787E0">
                        <tspan x="56.6752441" y="11">N</tspan>
                    </text>
                </g>
            </g>
            <g id="arrows/tag-hor---arrow-1" transform="translate(155.000000, 659.000000)">
                <g id="tag-hor---arrow-1">
                    <line x1="1" y1="6.5" x2="118.70202" y2="6.5" id="Line" stroke="#1787E0" stroke-linecap="square"></line>
                    <circle id="Oval" stroke="#1787E0" fill="#FFFFFF" cx="2.5" cy="6.5" r="2.5"></circle>
                    <polygon id="Triangle" fill="#1787E0" points="117 9 117 4 120 6.5"></polygon>
                    <rect id="pill" fill="#FFFFFF" x="50" y="0" width="20" height="13" rx="6.5"></rect>
                    <text id="Label" font-family="Helvetica" font-size="9" font-weight="normal" letter-spacing="0.15" fill="#1787E0">
                        <tspan x="56.6752441" y="11">N</tspan>
                    </text>
                </g>
            </g>
            <g id="arrows/tag-hor---arrow-1" transform="translate(150.000000, 859.000000)">
                <g id="tag-hor---arrow-1">
                    <line x1="1" y1="6.5" x2="118.70202" y2="6.5" id="Line" stroke="#1787E0" stroke-linecap="square"></line>
                    <circle id="Oval" stroke="#1787E0" fill="#FFFFFF" cx="2.5" cy="6.5" r="2.5"></circle>
                    <polygon id="Triangle" fill="#1787E0" points="117 9 117 4 120 6.5"></polygon>
                    <rect id="pill" fill="#FFFFFF" x="50" y="0" width="20" height="13" rx="6.5"></rect>
                    <text id="Label" font-family="Helvetica" font-size="9" font-weight="normal" letter-spacing="0.15" fill="#1787E0">
                        <tspan x="56.6752441" y="11">N</tspan>
                    </text>
                </g>
            </g>
            <g id="arrows/arrow-2" transform="translate(214.500000, 163.000000) scale(-1, 1) translate(-214.500000, -163.000000) translate(90.000000, 138.000000)">
                <g id="arrow-2">
                    <path d="M0,0 L1.28191349e-14,37.0037527 C1.47316857e-14,42.5245276 4.47138097,47 10.0078745,47 L247,47" id="Path-2" stroke="#1787E0"></path>
                    <polygon id="Triangle-2" fill="#1787E0" points="246 50 246 44 249 47"></polygon>
                </g>
            </g>
            <g id="arrows/arrow-2" transform="translate(214.500000, 300.000000) scale(-1, 1) translate(-214.500000, -300.000000) translate(90.000000, 275.000000)">
                <g id="arrow-2">
                    <path d="M0,0 L1.28191349e-14,37.0037527 C1.47316857e-14,42.5245276 4.47138097,47 10.0078745,47 L247,47" id="Path-2" stroke="#1787E0"></path>
                    <polygon id="Triangle-2" fill="#1787E0" points="246 50 246 44 249 47"></polygon>
                </g>
            </g>
            <g id="arrows/arrow-2" transform="translate(214.500000, 439.000000) scale(-1, 1) translate(-214.500000, -439.000000) translate(90.000000, 414.000000)">
                <g id="arrow-2">
                    <path d="M0,0 L1.28191349e-14,37.0037527 C1.47316857e-14,42.5245276 4.47138097,47 10.0078745,47 L247,47" id="Path-2" stroke="#1787E0"></path>
                    <polygon id="Triangle-2" fill="#1787E0" points="246 50 246 44 249 47"></polygon>
                </g>
            </g>
            <g id="arrows/arrow-2" transform="translate(214.500000, 575.000000) scale(-1, 1) translate(-214.500000, -575.000000) translate(90.000000, 550.000000)">
                <g id="arrow-2">
                    <path d="M0,0 L1.28191349e-14,37.0037527 C1.47316857e-14,42.5245276 4.47138097,47 10.0078745,47 L247,47" id="Path-2" stroke="#1787E0"></path>
                    <polygon id="Triangle-2" fill="#1787E0" points="246 50 246 44 249 47"></polygon>
                </g>
            </g>
            <g id="arrows/arrow-2" transform="translate(214.500000, 908.000000) scale(-1, 1) translate(-214.500000, -908.000000) translate(90.000000, 883.000000)">
                <g id="arrow-2">
                    <path d="M0,0 L1.28191349e-14,37.0037527 C1.47316857e-14,42.5245276 4.47138097,47 10.0078745,47 L247,47" id="Path-2" stroke="#1787E0"></path>
                    <polygon id="Triangle-2" fill="#1787E0" points="246 50 246 44 249 47"></polygon>
                </g>
            </g>
            <g id="arrows/arrow-2" transform="translate(239.500000, 725.500000) scale(-1, 1) translate(-239.500000, -725.500000) translate(140.000000, 685.000000)">
                <g id="arrow-2">
                    <path d="M0,0 L1.13216353e-14,68.0023133 C1.22409159e-14,73.5238832 4.48475993,78 10.0060616,78 L197,78" id="Path-2" stroke="#1787E0"></path>
                    <polygon id="Triangle-2" fill="#1787E0" points="196 81 196 75 199 78"></polygon>
                </g>
            </g>
        </g>
    </g>
</svg>